<svg width="37" height="46" viewBox="0 0 37 46" fill="none" xmlns="http://www.w3.org/2000/svg">
<path d="M36.4284 40.7271L30.9843 39.529L29.297 44.8557C29.1756 45.2387 28.6569 45.2949 28.4565 44.9467L21.7215 33.2471C25.0391 32.5283 27.9909 30.8246 30.2574 28.4568L36.9279 40.0458C37.1281 40.3934 36.8202 40.8134 36.4284 40.7271Z" fill="#FD646F"/>
<path d="M36.4285 40.727L31.3964 39.6194C31.163 39.5681 30.9291 39.7032 30.8569 39.9309L29.2971 44.8555C29.1757 45.2385 28.657 45.2946 28.4566 44.9464L22.6868 34.9227L21.7216 33.2469C25.0392 32.528 27.991 30.8244 30.2575 28.4565L31.2153 30.1194L36.9281 40.0456C37.1281 40.3934 36.8202 40.8132 36.4285 40.727Z" fill="#FD646F"/>
<path d="M36.4284 40.7267L31.3967 39.6193C31.163 39.5686 30.9293 39.7034 30.8573 39.9306L31.3989 38.2476C31.472 38.0206 31.7059 37.8866 31.9387 37.9383L36.2687 38.9008L36.9281 40.0461C37.1285 40.3933 36.82 40.8136 36.4284 40.7267Z" fill="#FC4755"/>
<path d="M15.6058 33.1066L8.76432 44.9892C8.5639 45.3374 8.04521 45.2812 7.92385 44.8982L6.36389 39.9736C6.29176 39.7458 6.05772 39.6107 5.82442 39.6621L0.792388 40.7696C0.400599 40.8558 0.0927639 40.4359 0.292907 40.0882L6.65584 29.0337C9.03133 31.2858 12.2356 32.5517 15.6058 33.1066Z" fill="#FD646F"/>
<path d="M7.55635 30.6781L1.88639 40.5284L0.792664 40.7693C0.400875 40.8557 0.0929474 40.4357 0.293091 40.088L5.70925 30.6781L7.17389 28.127C7.56826 28.5003 7.98019 28.8551 8.40966 29.1886L7.55635 30.6781Z" fill="#FC4755"/>
<path d="M9.43171 43.8291L8.76395 44.9892C8.56353 45.3374 8.04539 45.2819 7.92348 44.8986L6.36352 39.974C6.29148 39.7459 6.05781 39.6111 5.82414 39.6619L7.54942 39.2823C7.78272 39.231 8.01667 39.3661 8.0888 39.5938L9.43171 43.8291Z" fill="#FC4755"/>
<path d="M6.8098 28.7524L11.3095 30.7816L15.6058 33.1066L14.4538 35.1061C11.2415 34.454 8.26105 32.9588 5.79782 30.7567C5.76826 30.7308 5.73871 30.7048 5.70915 30.678L6.8098 28.7524Z" fill="#FC4755"/>
<path d="M31.2152 30.1196L30.2574 28.4568L25.1893 30.6937L21.7215 33.2471L22.1113 33.9238L23.0684 35.5861L28.4565 44.9466C28.6569 45.2948 29.1756 45.2386 29.297 44.8556L29.6401 43.7724L24.2846 34.444C26.8772 33.5418 29.2374 32.0741 31.2152 30.1196Z" fill="#FC4755"/>
<path d="M35.3728 16.813C35.3728 21.3318 33.5948 25.4358 30.7012 28.4568C28.4347 30.8246 25.4829 32.5282 22.1653 33.2471C21.0192 33.4953 19.8305 33.6259 18.6104 33.6259C17.6794 33.6259 16.7669 33.5499 15.8775 33.4036C12.68 32.8775 9.78637 31.4434 7.46999 29.3739C7.34438 29.2627 7.22155 29.1497 7.09963 29.0339C6.66739 28.6245 6.25731 28.1918 5.8694 27.7388C5.49811 27.3035 5.14899 26.8486 4.82296 26.3762C3.84395 24.9597 3.07644 23.3839 2.56569 21.696C2.09928 20.1508 1.84806 18.512 1.84806 16.8131C1.84806 7.52777 9.3532 0 18.6104 0C20.3034 0 21.9381 0.251957 23.4778 0.720775C25.1615 1.23125 26.7316 2.00106 28.1447 2.98396C28.6157 3.311 29.0692 3.66114 29.5024 4.03445C30.0824 4.53098 30.6273 5.06741 31.1344 5.638C33.7713 8.60894 35.3728 12.5238 35.3728 16.813Z" fill="#FAA515"/>
<path d="M18.6104 28.8551C25.2412 28.8551 30.6164 23.4636 30.6164 16.8128C30.6164 10.162 25.2412 4.77051 18.6104 4.77051C11.9797 4.77051 6.6044 10.162 6.6044 16.8128C6.6044 23.4636 11.9797 28.8551 18.6104 28.8551Z" fill="#FAD207"/>
<path d="M30.6162 16.813C30.6162 23.4635 25.2409 28.8551 18.6104 28.8551C11.9799 28.8551 6.60458 23.4635 6.60458 16.813C6.60458 16.3108 6.63506 15.8162 6.69509 15.3308C7.42289 21.2828 12.4805 25.8907 18.6104 25.8907C24.7403 25.8907 29.7979 21.2828 30.5257 15.3308C30.5858 15.8163 30.6162 16.3109 30.6162 16.813Z" fill="#FAA515"/>
<path fill-rule="evenodd" clip-rule="evenodd" d="M18.6104 4.771C11.9799 4.771 6.60458 10.1626 6.60458 16.8131C6.60458 23.4637 11.9799 28.8553 18.6104 28.8553C25.2409 28.8553 30.6162 23.4637 30.6162 16.8131C30.6162 10.1626 25.2409 4.771 18.6104 4.771ZM18.6104 27.4656C12.7539 27.4656 7.98997 22.6873 7.98997 16.8131C7.98997 10.939 12.7539 6.16064 18.6104 6.16064C24.4669 6.16064 29.2308 10.939 29.2308 16.8131C29.2308 22.6873 24.4669 27.4656 18.6104 27.4656Z" fill="#FAF063"/>
<path d="M19.0252 10.1538L20.6745 13.5228C20.7416 13.6601 20.8723 13.7552 21.0236 13.7769L24.7301 14.3094C25.1094 14.3639 25.2611 14.8301 24.9866 15.0974L22.2982 17.7151C22.1891 17.8214 22.1394 17.9746 22.1653 18.1247L22.8059 21.826C22.8714 22.2042 22.4738 22.4925 22.1347 22.3129L18.8266 20.5599C18.6914 20.4882 18.5294 20.4882 18.3942 20.5599L15.0862 22.3129C14.747 22.4926 14.3494 22.2043 14.4149 21.826L15.0555 18.1247C15.0814 17.9746 15.0318 17.8214 14.9226 17.7151L12.2343 15.0974C11.9597 14.83 12.1114 14.3639 12.4908 14.3094L16.1972 13.7769C16.3484 13.7552 16.4791 13.6601 16.5464 13.5228L18.1956 10.1538C18.3646 9.80876 18.8563 9.80876 19.0252 10.1538Z" fill="#FAA515"/>
</svg>
